<svg width="74" height="74" viewBox="0 0 74 74" fill="none" xmlns="http://www.w3.org/2000/svg">
<mask id="mask0_55_12891" style="mask-type:alpha" maskUnits="userSpaceOnUse" x="0" y="0" width="74" height="74">
<rect x="0.389648" y="0.660889" width="73.2203" height="73.2203" fill="#D9D9D9"/>
</mask>
<g mask="url(#mask0_55_12891)">
<path d="M58.3557 25.0678V18.9661H52.254V12.8644H58.3557V6.7627H64.4574V12.8644H70.5591V18.9661H64.4574V25.0678H58.3557ZM9.54212 67.7796C7.86416 67.7796 6.42823 67.1827 5.23433 65.9888C4.0384 64.7929 3.44043 63.3559 3.44043 61.678V25.0678C3.44043 23.3898 4.0384 21.9539 5.23433 20.76C6.42823 19.5641 7.86416 18.9661 9.54212 18.9661H19.1523L24.7964 12.8644H43.1014V18.9661H27.4659L21.8981 25.0678H9.54212V61.678H58.3557V34.2203H64.4574V61.678C64.4574 63.3559 63.8604 64.7929 62.6665 65.9888C61.4706 67.1827 60.0337 67.7796 58.3557 67.7796H9.54212ZM33.9489 57.1017C37.7625 57.1017 41.0045 55.7674 43.675 53.099C46.3435 50.4285 47.6777 47.1864 47.6777 43.3729C47.6777 39.5593 46.3435 36.3173 43.675 33.6468C41.0045 30.9783 37.7625 29.6441 33.9489 29.6441C30.1353 29.6441 26.8933 30.9783 24.2228 33.6468C21.5543 36.3173 20.2201 39.5593 20.2201 43.3729C20.2201 47.1864 21.5543 50.4285 24.2228 53.099C26.8933 55.7674 30.1353 57.1017 33.9489 57.1017ZM33.9489 51C31.8133 51 30.0082 50.2627 28.5337 48.7881C27.0591 47.3135 26.3218 45.5085 26.3218 43.3729C26.3218 41.2373 27.0591 39.4322 28.5337 37.9576C30.0082 36.483 31.8133 35.7457 33.9489 35.7457C36.0845 35.7457 37.8896 36.483 39.3642 37.9576C40.8387 39.4322 41.576 41.2373 41.576 43.3729C41.576 45.5085 40.8387 47.3135 39.3642 48.7881C37.8896 50.2627 36.0845 51 33.9489 51Z" fill="#1C1B1F"/>
</g>
</svg>
