<svg width="50" height="50" viewBox="0 0 50 50" fill="none" xmlns="http://www.w3.org/2000/svg">
<circle cx="25" cy="25" r="25" fill="#EDF2F7"/>
<path d="M33 35H17V33C17 31.6739 17.5268 30.4021 18.4645 29.4645C19.4021 28.5268 20.6739 28 22 28H28C29.3261 28 30.5979 28.5268 31.5355 29.4645C32.4732 30.4021 33 31.6739 33 33V35ZM25 26C24.2121 26 23.4319 25.8448 22.7039 25.5433C21.9759 25.2417 21.3145 24.7998 20.7574 24.2426C20.2002 23.6855 19.7583 23.0241 19.4567 22.2961C19.1552 21.5681 19 20.7879 19 20C19 19.2121 19.1552 18.4319 19.4567 17.7039C19.7583 16.9759 20.2002 16.3145 20.7574 15.7574C21.3145 15.2002 21.9759 14.7583 22.7039 14.4567C23.4319 14.1552 24.2121 14 25 14C26.5913 14 28.1174 14.6321 29.2426 15.7574C30.3679 16.8826 31 18.4087 31 20C31 21.5913 30.3679 23.1174 29.2426 24.2426C28.1174 25.3679 26.5913 26 25 26Z" fill="#2D3748"/>
</svg>
