<svg width="248" height="36" viewBox="0 0 248 36" fill="none" xmlns="http://www.w3.org/2000/svg">
<path d="M32.085 25.1081C33.9892 23.1514 35.8765 21.212 37.8481 19.186C39.786 21.1601 41.707 23.1687 43.7797 25.264C39.8028 25.264 35.9945 25.264 32.2029 25.264C32.1524 25.212 32.1187 25.1774 32.085 25.1081Z" fill="#FE6A00"/>
<path d="M13.9531 24.8999C11.9815 22.874 10.0773 20.9172 8.05518 18.8047C12.0152 18.8047 15.7899 18.822 19.5646 18.8047C19.5983 18.8566 19.6151 18.9259 19.6657 18.9605C17.8458 21.0038 15.891 22.874 13.9531 24.8999Z" fill="#FE6A00"/>
<path d="M24.0132 18.9087C27.9901 18.9087 31.8322 18.9087 35.8596 18.9087C33.8206 21.0039 31.8827 22.978 29.9448 25.0039C27.9395 22.9433 26.0185 20.952 24.0132 18.9087Z" fill="#FE6A00"/>
<path d="M27.535 25.2466C23.7772 25.2466 20.0025 25.2466 16.2447 25.2466C16.211 25.1947 16.1773 25.1427 16.1436 25.0908C18.0309 23.1514 19.9351 21.212 21.9067 19.186C23.8277 21.1601 25.7151 23.0995 27.6024 25.0562C27.5856 25.0908 27.5687 25.1601 27.535 25.2466Z" fill="#FE6A00"/>
<path d="M11.8634 25.2984C8.74587 25.2984 5.74635 25.2984 2.76367 25.2984C2.76367 23.5668 3.74104 21.6794 5.94856 19.2378C7.88646 21.2291 9.82435 23.2032 11.8634 25.2984Z" fill="#FE6A01"/>
<path d="M39.5498 18.8223C42.6673 18.8223 45.6668 18.8223 48.6495 18.8223C48.6495 20.5539 47.6721 22.4413 45.4646 24.8829C43.5436 22.9088 41.5888 20.9175 39.5498 18.8223Z" fill="#FE6A01"/>
<path d="M32.085 17.1774C34.006 15.2381 35.8933 13.2813 37.8649 11.2554C39.8028 13.2294 41.7239 15.2381 43.7966 17.3333C39.8197 17.3333 36.0113 17.3333 32.2198 17.3333C32.1524 17.2813 32.1187 17.2467 32.085 17.1774Z" fill="#201E1E"/>
<path d="M13.9531 16.9698C11.9815 14.9438 10.0773 12.9871 8.05518 10.8745C12.0152 10.8745 15.7899 10.8918 19.5646 10.8745C19.5983 10.9265 19.6151 10.9957 19.6657 11.0304C17.8458 13.091 15.891 14.9438 13.9531 16.9698Z" fill="#201E1E"/>
<path d="M24.0132 10.978C27.9901 10.978 31.8322 10.978 35.8596 10.978C33.8206 13.0733 31.8827 15.0473 29.9448 17.0733C27.9395 15.0127 26.0185 13.0213 24.0132 10.978Z" fill="#201E1E"/>
<path d="M27.535 17.3333C23.7772 17.3333 20.0025 17.3333 16.2447 17.3333C16.211 17.2813 16.1773 17.2294 16.1436 17.1774C18.0309 15.2207 19.9351 13.2813 21.9067 11.2554C23.8277 13.2294 25.7151 15.1688 27.6024 17.1255C27.5856 17.1601 27.5687 17.2467 27.535 17.3333Z" fill="#201E1E"/>
<path d="M11.8634 17.3677C8.74587 17.3677 5.74635 17.3677 2.76367 17.3677C2.76367 15.6361 3.74104 13.7487 5.94856 11.3071C7.88646 13.2985 9.82435 15.2898 11.8634 17.3677Z" fill="#201E1E"/>
<path d="M39.5498 10.8916C42.6673 10.8916 45.6668 10.8916 48.6495 10.8916C48.6495 12.6232 47.6721 14.5106 45.4646 16.9522C43.5436 14.9782 41.5888 12.9868 39.5498 10.8916Z" fill="#201E1E"/>
<path d="M32.085 9.52364C33.9892 7.56693 35.8765 5.62754 37.8481 3.60156C39.786 5.57559 41.707 7.58425 43.7797 9.67949C39.8028 9.67949 35.9945 9.67949 32.2029 9.67949C32.1524 9.62754 32.1187 9.59291 32.085 9.52364Z" fill="#201E1E"/>
<path d="M13.9531 9.31594C11.9815 7.28997 10.0773 5.33326 8.05518 3.2207C12.0152 3.2207 15.7899 3.23802 19.5646 3.2207C19.5983 3.27265 19.6151 3.34192 19.6657 3.37655C17.8458 5.41984 15.891 7.28997 13.9531 9.31594Z" fill="#201E1E"/>
<path d="M24.0132 3.32422C27.9901 3.32422 31.8322 3.32422 35.8596 3.32422C33.8206 5.41946 31.8827 7.39348 29.9448 9.41946C27.9395 7.35885 26.0185 5.35019 24.0132 3.32422Z" fill="#201E1E"/>
<path d="M27.535 9.66217C23.7772 9.66217 20.0025 9.66217 16.2447 9.66217C16.211 9.61022 16.1773 9.55827 16.1436 9.50632C18.0309 7.56693 19.9351 5.62754 21.9067 3.60156C23.8277 5.57559 25.7151 7.51498 27.6024 9.47169C27.5856 9.50632 27.5687 9.57559 27.535 9.66217Z" fill="#201E1E"/>
<path d="M11.8634 9.71393C8.74587 9.71393 5.74635 9.71393 2.76367 9.71393C2.76367 7.98232 3.74104 6.09488 5.94856 3.65332C7.88646 5.62735 9.82435 7.61869 11.8634 9.71393Z" fill="#201E1E"/>
<path d="M39.5498 3.23779C42.6673 3.23779 45.6668 3.23779 48.6495 3.23779C48.6495 4.96939 47.6721 6.85684 45.4646 9.2984C43.5436 7.32437 41.5888 5.33303 39.5498 3.23779Z" fill="#201E1E"/>
<path d="M32.085 32.5886C33.9892 30.6319 35.8765 28.6925 37.8481 26.6665C39.786 28.6405 41.707 30.6492 43.7797 32.7444C39.8028 32.7444 35.9945 32.7444 32.2029 32.7444C32.1524 32.6925 32.1187 32.6405 32.085 32.5886Z" fill="#201E1E"/>
<path d="M13.9531 32.3809C11.9815 30.3549 10.0773 28.3982 8.05518 26.2856C12.0152 26.2856 15.7899 26.303 19.5646 26.2856C19.5983 26.3376 19.6151 26.4069 19.6657 26.4415C17.8458 28.4848 15.891 30.3549 13.9531 32.3809Z" fill="#201E1E"/>
<path d="M24.0132 26.3721C27.9901 26.3721 31.8322 26.3721 35.8596 26.3721C33.8206 28.4673 31.8827 30.4413 29.9448 32.4673C27.9395 30.424 26.0185 28.4154 24.0132 26.3721Z" fill="#201E1E"/>
<path d="M27.535 32.7271C23.7772 32.7271 20.0025 32.7271 16.2447 32.7271C16.211 32.6752 16.1773 32.6232 16.1436 32.5713C18.0309 30.6319 19.9351 28.6925 21.9067 26.6665C23.8277 28.6405 25.7151 30.5799 27.6024 32.5366C27.5856 32.5713 27.5687 32.6405 27.535 32.7271Z" fill="#201E1E"/>
<path d="M11.8634 32.7794C8.74587 32.7794 5.74635 32.7794 2.76367 32.7794C2.76367 31.0478 3.74104 29.1603 5.94856 26.7188C7.88646 28.6928 9.82435 30.6841 11.8634 32.7794Z" fill="#201E1E"/>
<path d="M39.5498 26.3027C42.6673 26.3027 45.6668 26.3027 48.6495 26.3027C48.6495 28.0343 47.6721 29.9218 45.4646 32.3633C43.5436 30.372 41.5888 28.398 39.5498 26.3027Z" fill="#201E1E"/>
<path d="M54.0928 26.2166V6.75342H63.3441C65.7201 6.75342 67.5232 7.22095 68.7197 8.1387C69.9161 9.07376 70.5227 10.2859 70.5227 11.8097C70.5227 12.8313 70.2868 13.7145 69.7981 14.459C69.3095 15.2036 68.6354 15.7924 67.776 16.1906C66.9166 16.6062 65.9561 16.7967 64.8607 16.7967L65.3831 15.6365C66.5796 15.6365 67.6243 15.8443 68.5343 16.2426C69.4443 16.6582 70.1689 17.2469 70.6913 18.0261C71.2136 18.8054 71.4833 19.7577 71.4833 20.8833C71.4833 22.5456 70.8429 23.8616 69.5622 24.7967C68.2815 25.7318 66.3942 26.1993 63.9002 26.1993H54.0928V26.2166ZM58.4572 22.8227H63.5969C64.7091 22.8227 65.5685 22.6322 66.1751 22.2339C66.7649 21.853 67.0682 21.2469 67.0682 20.4331C67.0682 19.6019 66.7649 18.9785 66.1751 18.5976C65.5853 18.2166 64.7259 18.0088 63.5969 18.0088H58.1202V14.7188H62.8049C63.8665 14.7188 64.6922 14.5283 65.2483 14.1474C65.8212 13.7664 66.1077 13.195 66.1077 12.4158C66.1077 11.6365 65.8212 11.0651 65.2483 10.6842C64.6754 10.3205 63.8665 10.13 62.8049 10.13H58.4404V22.8227H58.4572Z" fill="#201E1E"/>
<path d="M74.8032 26.2166V6.75342H79.2183V26.2339H74.8032V26.2166Z" fill="#201E1E"/>
<path d="M83.6836 26.2166V6.75342H92.9349C95.311 6.75342 97.1141 7.22095 98.3105 8.1387C99.5069 9.07376 100.114 10.2859 100.114 11.8097C100.114 12.8313 99.8777 13.7145 99.389 14.459C98.9003 15.2036 98.2262 15.7924 97.3668 16.1906C96.5074 16.6062 95.5469 16.7967 94.4516 16.7967L94.9739 15.6365C96.1704 15.6365 97.2152 15.8443 98.1251 16.2426C99.0351 16.6582 99.7597 17.2469 100.282 18.0261C100.804 18.8054 101.074 19.7577 101.074 20.8833C101.074 22.5456 100.434 23.8616 99.1531 24.7967C97.8724 25.7318 95.985 26.1993 93.491 26.1993H83.6836V26.2166ZM88.0312 22.8227H93.1877C94.2999 22.8227 95.1593 22.6322 95.7659 22.2339C96.3557 21.853 96.6591 21.2469 96.6591 20.4331C96.6591 19.6019 96.3557 18.9785 95.7659 18.5976C95.1762 18.2166 94.3167 18.0088 93.1877 18.0088H87.711V14.7188H92.3957C93.4573 14.7188 94.283 14.5283 94.8391 14.1474C95.4121 13.7664 95.6985 13.195 95.6985 12.4158C95.6985 11.6365 95.4121 11.0651 94.8391 10.6842C94.2662 10.3205 93.4573 10.13 92.3957 10.13H88.0312V22.8227Z" fill="#201E1E"/>
<path d="M104.394 26.2166V6.75342H108.809V22.5456H118.263V26.2166H104.394Z" fill="#201E1E"/>
<path d="M120.74 26.2166V6.75342H125.155V26.2339H120.74V26.2166Z" fill="#201E1E"/>
<path d="M138.821 26.5455C137.321 26.5455 135.939 26.3031 134.676 25.8009C133.412 25.2988 132.316 24.5888 131.373 23.6884C130.429 22.788 129.705 21.7144 129.199 20.4849C128.677 19.2555 128.424 17.9222 128.424 16.4849C128.424 15.0131 128.677 13.6797 129.199 12.4676C129.721 11.2555 130.446 10.1992 131.373 9.28146C132.316 8.38103 133.412 7.67107 134.659 7.16891C135.906 6.66674 137.288 6.42432 138.787 6.42432C140.287 6.42432 141.669 6.66674 142.916 7.16891C144.163 7.65375 145.258 8.36371 146.202 9.26414C147.146 10.1646 147.87 11.2382 148.376 12.4676C148.898 13.697 149.151 15.0304 149.151 16.5022C149.151 17.9568 148.898 19.2901 148.376 20.5196C147.853 21.749 147.129 22.8226 146.202 23.7403C145.258 24.6408 144.163 25.3507 142.916 25.8356C141.669 26.3031 140.304 26.5455 138.821 26.5455ZM138.804 22.736C139.647 22.736 140.439 22.5802 141.147 22.2685C141.854 21.9568 142.495 21.5239 143.034 20.9698C143.573 20.3983 143.994 19.7403 144.298 18.9957C144.601 18.2512 144.753 17.4027 144.753 16.4849C144.753 15.5499 144.601 14.7187 144.298 13.9741C143.994 13.2295 143.573 12.5715 143.034 12.0001C142.495 11.4286 141.871 10.9957 141.147 10.6841C140.439 10.3724 139.647 10.2165 138.804 10.2165C137.962 10.2165 137.17 10.3724 136.445 10.6841C135.72 10.9957 135.097 11.4286 134.558 12.0001C134.018 12.5715 133.614 13.2295 133.311 13.9741C133.007 14.7187 132.856 15.5672 132.856 16.4849C132.856 17.42 133.007 18.2512 133.311 18.9957C133.614 19.7403 134.018 20.3983 134.558 20.9698C135.097 21.5412 135.72 21.9741 136.445 22.2685C137.17 22.5975 137.945 22.736 138.804 22.736Z" fill="#201E1E"/>
<path d="M161.537 26.5455C160.071 26.5455 158.722 26.3031 157.459 25.8009C156.212 25.3161 155.116 24.6061 154.189 23.7057C153.263 22.8052 152.555 21.7316 152.032 20.5022C151.51 19.2728 151.257 17.9394 151.257 16.4676C151.257 14.9957 151.51 13.6624 152.032 12.4329C152.555 11.2035 153.263 10.1472 154.206 9.22948C155.133 8.32904 156.228 7.61909 157.475 7.13424C158.722 6.64939 160.087 6.38965 161.553 6.38965C163.188 6.38965 164.688 6.68402 166.019 7.27277C167.35 7.86151 168.479 8.71 169.372 9.85285L166.525 12.5195C165.884 11.7576 165.176 11.1862 164.368 10.7879C163.559 10.407 162.699 10.1992 161.756 10.1992C160.879 10.1992 160.054 10.355 159.312 10.6667C158.571 10.9784 157.93 11.4113 157.391 11.9654C156.852 12.5195 156.431 13.1775 156.127 13.9394C155.824 14.7013 155.672 15.5498 155.672 16.4676C155.672 17.4026 155.824 18.2338 156.127 18.9957C156.431 19.7576 156.852 20.4156 157.391 20.9697C157.93 21.5238 158.571 21.9568 159.312 22.2684C160.054 22.5801 160.863 22.736 161.756 22.736C162.699 22.736 163.559 22.5455 164.368 22.1299C165.176 21.7316 165.884 21.1602 166.525 20.3983L169.372 23.065C168.462 24.1905 167.35 25.0563 166.019 25.6451C164.688 26.2511 163.188 26.5455 161.537 26.5455Z" fill="#FE6A01"/>
<path d="M176.045 26.2166V10.4244H169.979V6.75342H186.493V10.4244H180.427V26.2166H176.045Z" fill="#FE6A01"/>
<path d="M193.2 22.5976H203.513V26.2166H188.836V6.75342H203.16V10.3725H193.2V22.5976ZM192.88 14.5629H201.997V18.0954H192.88V14.5629Z" fill="#201E1E"/>
<path d="M216.084 26.5455C214.618 26.5455 213.27 26.3031 212.006 25.8009C210.759 25.3161 209.664 24.6061 208.737 23.7057C207.81 22.8052 207.102 21.7316 206.58 20.5022C206.057 19.2728 205.805 17.9394 205.805 16.4676C205.805 14.9957 206.057 13.6624 206.58 12.4329C207.102 11.2035 207.81 10.1472 208.754 9.22948C209.68 8.32904 210.776 7.61909 212.023 7.13424C213.27 6.64939 214.635 6.38965 216.101 6.38965C217.735 6.38965 219.235 6.68402 220.566 7.27277C221.898 7.86151 223.027 8.71 223.92 9.85285L221.089 12.5368C220.448 11.7749 219.741 11.2035 218.932 10.8052C218.123 10.4243 217.264 10.2165 216.32 10.2165C215.444 10.2165 214.618 10.3723 213.876 10.684C213.135 10.9957 212.495 11.4286 211.955 11.9827C211.416 12.5368 210.995 13.1948 210.692 13.9567C210.388 14.7187 210.237 15.5671 210.237 16.4849C210.237 17.42 210.388 18.2511 210.692 19.013C210.995 19.7749 211.416 20.4329 211.955 20.9871C212.495 21.5412 213.135 21.9741 213.876 22.2858C214.618 22.5974 215.427 22.7533 216.32 22.7533C217.264 22.7533 218.123 22.5628 218.932 22.1472C219.741 21.749 220.448 21.1775 221.089 20.4156L223.937 23.0823C223.027 24.2078 221.914 25.0736 220.583 25.6624C219.235 26.2511 217.735 26.5455 216.084 26.5455Z" fill="#201E1E"/>
<path d="M223.987 26.2169L232.413 6.73633H236.744L245.237 26.2169H240.636L233.677 9.02204H235.429L228.47 26.2169H223.987ZM228.234 22.0437L229.346 18.6151H239.153L240.282 22.0437H228.234Z" fill="#201E1E"/>
</svg>
