<svg width="57" height="38" viewBox="0 0 57 38" fill="none" xmlns="http://www.w3.org/2000/svg">
<path d="M35.2876 26.4034C37.3139 24.3654 39.3222 22.3455 41.4202 20.2354C43.4823 22.2914 45.5265 24.3834 47.732 26.5657C43.5002 26.5657 39.4477 26.5657 35.4131 26.5657C35.3593 26.5116 35.3235 26.4755 35.2876 26.4034Z" fill="#FE6A00"/>
<path d="M15.9938 26.1867C13.8958 24.0766 11.8696 22.0387 9.71777 19.8384C13.9317 19.8384 17.9483 19.8564 21.965 19.8384C22.0008 19.8925 22.0188 19.9646 22.0726 20.0007C20.136 22.1288 18.0559 24.0766 15.9938 26.1867Z" fill="#FE6A00"/>
<path d="M26.6987 19.9468C30.9306 19.9468 35.0189 19.9468 39.3046 19.9468C37.1349 22.129 35.0727 24.185 33.0106 26.2951C30.8768 24.149 28.8326 22.0749 26.6987 19.9468Z" fill="#FE6A00"/>
<path d="M30.4464 26.5476C26.4477 26.5476 22.431 26.5476 18.4323 26.5476C18.3964 26.4935 18.3606 26.4394 18.3247 26.3853C20.333 24.3654 22.3593 22.3455 24.4573 20.2354C26.5015 22.2914 28.5098 24.3113 30.5181 26.3493C30.5002 26.3853 30.4822 26.4575 30.4464 26.5476Z" fill="#FE6A00"/>
<path d="M13.7699 26.6018C10.4526 26.6018 7.26078 26.6018 4.08691 26.6018C4.08691 24.7983 5.12694 22.8325 7.47596 20.2896C9.53808 22.3636 11.6002 24.4196 13.7699 26.6018Z" fill="#FE6A01"/>
<path d="M43.2314 19.8564C46.5488 19.8564 49.7406 19.8564 52.9144 19.8564C52.9144 21.66 51.8744 23.6258 49.5254 26.1687C47.4812 24.1127 45.4012 22.0387 43.2314 19.8564Z" fill="#FE6A01"/>
<path d="M35.2876 18.1436C37.3318 16.1237 39.3401 14.0857 41.4381 11.9756C43.5002 14.0316 45.5444 16.1237 47.75 18.3059C43.5181 18.3059 39.4656 18.3059 35.431 18.3059C35.3593 18.2518 35.3235 18.2157 35.2876 18.1436Z" fill="#201E1E"/>
<path d="M15.9938 17.927C13.8958 15.8169 11.8696 13.7789 9.71777 11.5786C13.9317 11.5786 17.9483 11.5966 21.965 11.5786C22.0008 11.6327 22.0188 11.7049 22.0726 11.7409C20.136 13.8871 18.0559 15.8169 15.9938 17.927Z" fill="#201E1E"/>
<path d="M26.6987 11.6865C30.9306 11.6865 35.0189 11.6865 39.3046 11.6865C37.1349 13.8688 35.0727 15.9248 33.0106 18.0349C30.8768 15.8887 28.8326 13.8147 26.6987 11.6865Z" fill="#201E1E"/>
<path d="M30.4464 18.3059C26.4477 18.3059 22.431 18.3059 18.4323 18.3059C18.3964 18.2518 18.3606 18.1977 18.3247 18.1436C20.333 16.1056 22.3593 14.0857 24.4573 11.9756C26.5015 14.0316 28.5098 16.0515 30.5181 18.0895C30.5002 18.1256 30.4822 18.2157 30.4464 18.3059Z" fill="#201E1E"/>
<path d="M13.7699 18.3416C10.4526 18.3416 7.26078 18.3416 4.08691 18.3416C4.08691 16.5381 5.12694 14.5722 7.47596 12.0293C9.53808 14.1033 11.6002 16.1774 13.7699 18.3416Z" fill="#201E1E"/>
<path d="M43.2314 11.5967C46.5488 11.5967 49.7406 11.5967 52.9144 11.5967C52.9144 13.4002 51.8744 15.366 49.5254 17.909C47.4812 15.853 45.4012 13.7789 43.2314 11.5967Z" fill="#201E1E"/>
<path d="M35.2876 10.1719C37.3139 8.13395 39.3222 6.11402 41.4202 4.00391C43.4823 6.05991 45.5265 8.15198 47.732 10.3342C43.5002 10.3342 39.4477 10.3342 35.4131 10.3342C35.3593 10.2801 35.3235 10.2441 35.2876 10.1719Z" fill="#201E1E"/>
<path d="M15.9938 9.9553C13.8958 7.84519 11.8696 5.80722 9.71777 3.60693C13.9317 3.60693 17.9483 3.62497 21.965 3.60693C22.0008 3.66104 22.0188 3.73318 22.0726 3.76925C20.136 5.89739 18.0559 7.84519 15.9938 9.9553Z" fill="#201E1E"/>
<path d="M26.6987 3.71533C30.9306 3.71533 35.0189 3.71533 39.3046 3.71533C37.1349 5.89758 35.0727 7.95359 33.0106 10.0637C30.8768 7.91752 28.8326 5.82544 26.6987 3.71533Z" fill="#201E1E"/>
<path d="M30.4464 10.3162C26.4477 10.3162 22.431 10.3162 18.4323 10.3162C18.3964 10.2621 18.3606 10.208 18.3247 10.1539C20.333 8.13395 22.3593 6.11402 24.4573 4.00391C26.5015 6.05991 28.5098 8.07984 30.5181 10.1178C30.5002 10.1539 30.4822 10.226 30.4464 10.3162Z" fill="#201E1E"/>
<path d="M13.7699 10.3704C10.4526 10.3704 7.26078 10.3704 4.08691 10.3704C4.08691 8.56689 5.12694 6.60106 7.47596 4.05811C9.53808 6.11411 11.6002 8.18815 13.7699 10.3704Z" fill="#201E1E"/>
<path d="M43.2314 3.625C46.5488 3.625 49.7406 3.625 52.9144 3.625C52.9144 5.42851 51.8744 7.39434 49.5254 9.93729C47.4812 7.88129 45.4012 5.80725 43.2314 3.625Z" fill="#201E1E"/>
<path d="M35.2876 34.1944C37.3139 32.1564 39.3222 30.1365 41.4202 28.0264C43.4823 30.0824 45.5265 32.1744 47.732 34.3567C43.5002 34.3567 39.4477 34.3567 35.4131 34.3567C35.3593 34.3026 35.3235 34.2485 35.2876 34.1944Z" fill="#201E1E"/>
<path d="M15.9938 33.9782C13.8958 31.8681 11.8696 29.8302 9.71777 27.6299C13.9317 27.6299 17.9483 27.6479 21.965 27.6299C22.0008 27.684 22.0188 27.7561 22.0726 27.7922C20.136 29.9203 18.0559 31.8681 15.9938 33.9782Z" fill="#201E1E"/>
<path d="M26.6987 27.7202C30.9306 27.7202 35.0189 27.7202 39.3046 27.7202C37.1349 29.9025 35.0727 31.9585 33.0106 34.0686C30.8768 31.9404 28.8326 29.8484 26.6987 27.7202Z" fill="#201E1E"/>
<path d="M30.4464 34.3387C26.4477 34.3387 22.431 34.3387 18.4323 34.3387C18.3964 34.2846 18.3606 34.2304 18.3247 34.1763C20.333 32.1564 22.3593 30.1365 24.4573 28.0264C26.5015 30.0824 28.5098 32.1023 30.5181 34.1403C30.5002 34.1763 30.4822 34.2485 30.4464 34.3387Z" fill="#201E1E"/>
<path d="M13.7699 34.3929C10.4526 34.3929 7.26078 34.3929 4.08691 34.3929C4.08691 32.5893 5.12694 30.6235 7.47596 28.0806C9.53808 30.1366 11.6002 32.2106 13.7699 34.3929Z" fill="#201E1E"/>
<path d="M43.2314 27.6479C46.5488 27.6479 49.7406 27.6479 52.9144 27.6479C52.9144 29.4515 51.8744 31.4173 49.5254 33.9602C47.4812 31.8862 45.4012 29.8302 43.2314 27.6479Z" fill="#201E1E"/>
</svg>
