<svg width="412" height="88" viewBox="0 0 412 88" fill="none" xmlns="http://www.w3.org/2000/svg">
<path d="M302.013 66.1445C298.707 66.1445 295.439 66.1445 292.133 66.1445C285.713 57.6259 279.254 49.1073 272.526 40.2032C272.526 49.1073 272.526 57.5873 272.526 66.1445C268.874 66.1445 265.414 66.1445 261.878 66.1445C261.878 51.7284 261.878 37.3122 261.878 22.7419C265.107 22.7419 268.413 22.7419 271.911 22.7419C278.255 31.1835 284.713 39.7792 291.479 48.7218C291.479 39.8177 291.479 31.3377 291.479 22.7419C295.093 22.7419 298.514 22.7419 302.013 22.7419C302.013 37.1195 302.013 51.6127 302.013 66.1445Z" fill="#201E1E"/>
<path d="M219.59 22.665C223.434 22.665 227.125 22.665 230.969 22.665C230.969 23.5516 230.969 24.3996 230.969 25.2091C230.969 32.8411 230.969 40.4732 230.969 48.1053C230.969 54.6195 236.505 58.3584 242.733 56.5468C246.154 55.5446 248.23 52.538 248.269 48.6449C248.345 41.0128 248.307 33.3808 248.307 25.7102C248.307 24.7465 248.307 23.7829 248.307 22.7036C252.113 22.7036 255.842 22.7036 259.571 22.7036C259.879 23.2432 259.763 23.7443 259.763 24.2454C259.763 31.9931 259.763 39.7794 259.763 47.5271C259.763 49.7627 259.533 51.9984 258.841 54.1569C256.688 61.1337 250.806 65.7978 243.271 66.4916C239.926 66.8 236.62 66.8 233.352 65.9519C225.049 63.8705 219.974 57.973 219.628 49.146C219.321 40.4346 219.59 31.6462 219.59 22.665Z" fill="#201E1E"/>
<path d="M134.36 29.7955C132.207 32.3781 130.055 34.9606 127.863 37.5818C120.674 29.7955 113.255 31.0675 108.988 35.0377C104.221 39.509 103.913 47.7193 108.257 52.6532C112.101 57.0088 119.56 59.0903 127.863 51.5353C130.055 53.8866 132.207 56.2379 134.476 58.6663C128.132 64.7951 120.751 67.8787 111.948 66.3369C103.567 64.8336 97.6467 60.0539 94.7634 51.9208C89.9964 38.4298 98.6462 24.4762 112.793 22.5489C120.175 21.5467 126.71 23.3969 132.515 27.9839C133.169 28.4849 133.822 29.0246 134.36 29.7955Z" fill="#201E1E"/>
<path d="M187.143 59.7076C188.835 57.1635 190.565 54.6195 192.295 51.9984C193.294 52.8079 194.178 53.6173 195.139 54.3497C196.754 55.5446 198.522 56.4312 200.522 56.7781C203.597 57.3177 205.942 55.5061 205.981 52.4224C206.057 45.6769 206.019 38.9314 206.019 31.9931C201.06 31.9931 196.177 31.9931 191.18 31.9931C191.18 28.7938 191.18 25.7873 191.18 22.7036C199.906 22.7036 208.595 22.7036 217.283 22.7036C217.667 23.2047 217.475 23.8214 217.475 24.3611C217.475 33.4193 217.475 42.4776 217.475 51.5359C217.475 53.2319 217.36 54.8893 216.937 56.5083C215.476 62.2516 211.67 65.528 206.019 66.4531C198.638 67.6094 192.256 65.5665 187.143 59.7076Z" fill="#201E1E"/>
<path d="M149.084 31.916C144.701 31.916 140.511 31.916 136.205 31.916C136.205 28.7553 136.205 25.7872 136.205 22.665C148.584 22.665 160.963 22.665 173.419 22.665C173.419 25.7102 173.419 28.7167 173.419 31.8389C169.152 31.8389 164.923 31.8389 160.54 31.8389C160.54 43.3256 160.54 54.6195 160.54 66.0676C156.657 66.0676 152.967 66.0676 149.122 66.0676C149.084 54.7351 149.084 43.4412 149.084 31.916Z" fill="#201E1E"/>
<path d="M304.396 26.3267C308.241 30.0656 311.854 33.5733 315.545 37.158C315.545 46.7174 315.545 56.3538 315.545 66.1059C311.854 66.1059 308.202 66.1059 304.396 66.1059C304.396 52.9232 304.396 39.7791 304.396 26.3267Z" fill="#201E1E"/>
<path d="M61.7786 30.4128C63.2779 24.8237 64.7387 19.2731 66.2765 13.4912C71.9277 14.9945 77.5789 16.5363 83.6145 18.1167C76.2334 22.3953 69.1982 26.4811 62.163 30.567C62.0092 30.5284 61.8939 30.4899 61.7786 30.4128Z" fill="#FE6A00"/>
<path d="M27.9482 49.5314C22.1816 47.9895 16.6073 46.4863 10.6486 44.8673C17.9913 40.6273 24.988 36.58 31.9848 32.4941C32.1001 32.5712 32.2154 32.6483 32.3307 32.6869C31.1006 38.3146 29.409 43.7881 27.9482 49.5314Z" fill="#FE6A00"/>
<path d="M40.3273 27.8683C47.7084 23.5897 54.8205 19.4653 62.2786 15.1482C60.7024 21.1228 59.1646 26.789 57.6653 32.5323C51.8219 30.952 46.1707 29.4101 40.3273 27.8683Z" fill="#FE6A00"/>
<path d="M53.4746 35.5777C46.5163 39.625 39.5196 43.6723 32.5613 47.7196C32.446 47.6425 32.3307 47.6039 32.2153 47.5268C33.6762 41.9763 35.1755 36.4257 36.7132 30.6438C42.326 32.1471 47.8619 33.6118 53.3977 35.1151C53.3977 35.2307 53.4362 35.3849 53.4746 35.5777Z" fill="#FE6A00"/>
<path d="M8.95691 41.4755C10.5331 35.5394 11.994 30.0659 13.4933 24.4768C19.0676 25.9801 24.5266 27.4448 30.4469 29.0252C23.2579 33.1882 16.2996 37.2355 8.95691 41.4755Z" fill="#201E1E"/>
<path d="M78.9629 44.9443C77.3867 50.8418 75.9258 56.3153 74.4265 61.9816C68.8522 60.4783 63.3548 59.0135 57.4344 57.4332C64.7003 53.1931 71.6201 49.1844 78.9629 44.9443Z" fill="#201E1E"/>
<path d="M72.6581 68.4573C71.1203 74.2777 69.6594 79.7512 68.1217 85.456C62.5474 83.9527 57.0884 82.4879 51.1296 80.9076C58.4724 76.7061 65.4307 72.6973 72.6581 68.4573Z" fill="#201E1E"/>
<path d="M15.3005 18.3475C16.8767 12.45 18.3376 6.93799 19.8369 1.3103C25.4496 2.81359 30.9086 4.27833 36.7905 5.8587C29.4862 10.0987 22.5664 14.1075 15.3005 18.3475Z" fill="#201E1E"/>
<path d="M38.6354 24.4377C40.2116 18.5401 41.6724 13.0666 43.1717 7.43896C48.7845 8.94225 54.2435 10.407 60.1638 11.9874C52.8979 16.1889 45.9397 20.2362 38.6354 24.4377Z" fill="#201E1E"/>
<path d="M85.1138 22.0098C83.6529 27.4833 82.1921 32.9183 80.6928 38.546C75.0416 37.0427 69.5826 35.578 63.7391 33.9976C70.9665 29.7961 77.8479 25.7873 84.7678 21.7786C84.8831 21.8557 84.9984 21.9327 85.1138 22.0098Z" fill="#201E1E"/>
<path d="M60.0487 37.0425C65.6614 38.5458 71.1973 40.0105 77.0407 41.5909C69.8134 45.7924 62.8935 49.8011 55.5508 54.0797C57.0885 48.1822 58.5494 42.7087 60.0487 37.0425Z" fill="#201E1E"/>
<path d="M34.2147 26.2497C28.5251 24.7078 23.0661 23.2431 17.2611 21.7013C24.5269 17.4998 31.4468 13.491 38.7511 9.25098C37.1749 15.0714 35.714 20.5449 34.2147 26.2497Z" fill="#201E1E"/>
<path d="M55.4738 39.3552C54.0129 44.7516 52.5905 50.148 51.1296 55.6986C45.5169 54.1953 40.0579 52.7306 34.176 51.1502C41.4034 46.9487 48.2848 42.9785 55.1278 39.0083C55.2431 39.0854 55.3584 39.2396 55.4738 39.3552Z" fill="#201E1E"/>
<path d="M28.3328 74.3931C35.2142 70.3843 42.0956 66.4141 49.3999 62.1741C47.8237 68.0716 46.3628 73.5451 44.8635 79.1728C39.3276 77.6695 33.8686 76.2433 28.4481 74.7785C28.4097 74.7015 28.3712 74.5473 28.3328 74.3931Z" fill="#201E1E"/>
<path d="M25.9491 71.3097C27.4868 65.4893 28.9477 60.0158 30.4854 54.311C36.0982 55.8143 41.5956 57.2791 47.4775 58.8594C40.1732 63.0609 33.2149 67.1082 25.9491 71.3097Z" fill="#201E1E"/>
<path d="M53.744 60.5554C59.4336 62.0587 64.8926 63.5234 70.7361 65.1038C63.5471 69.2668 56.6273 73.3141 49.2461 77.5927C50.8223 71.7337 52.2447 66.2602 53.744 60.5554Z" fill="#201E1E"/>
<path d="M24.4882 52.4991C18.7217 55.8525 13.1473 59.0904 7.61145 62.2897C5.80461 59.1675 5.65083 54.6962 7.18858 47.9121C12.8398 49.4154 18.5294 50.9187 24.4882 52.4991Z" fill="#FE6A01"/>
<path d="M21.6049 72.8903C16.6842 71.8881 12.686 69.6525 9.34143 65.6823C14.8773 62.4444 20.2979 59.3222 26.1028 55.9302C24.5651 61.7506 23.1042 67.2241 21.6049 72.8903Z" fill="#201E1E"/>
<path d="M315.545 33.3036C312.008 29.7574 308.433 26.1341 304.973 22.6265C308.279 22.6265 311.854 22.6265 315.545 22.6265C315.545 26.2883 315.545 29.8731 315.545 33.3036Z" fill="#FE6A01"/>
<path d="M353.873 25.4403C348.53 22.4338 342.84 21.7014 336.804 22.5494C322.734 24.5923 314.238 38.5459 319.005 51.9213C322.157 60.8639 330.807 66.6458 341.148 66.6843C343.647 66.6458 346.108 66.3759 348.529 65.6821C357.333 63.1766 363.522 56.1228 364.676 47.103C365.829 38.3532 361.639 29.8345 353.873 25.4403ZM341.264 56.9708C334.613 56.8937 329.346 51.2274 329.385 44.2121C329.461 37.351 334.959 31.8389 341.571 31.9546C348.107 32.0702 353.22 37.5822 353.181 44.5205C353.143 51.5744 347.914 57.0093 341.264 56.9708Z" fill="#201E1E"/>
<path d="M397.007 52.114C402.427 48.0282 403.85 45.754 404.58 39.9336C405.695 31.1837 400.505 24.2069 391.702 23.012C383.552 21.9327 375.363 22.8578 367.059 22.5109C366.829 26.404 366.906 64.4487 367.175 66.1061C370.827 66.1061 374.517 66.1061 378.323 66.1061C378.323 62.0974 378.323 58.2043 378.323 54.2726C381.245 54.2726 384.051 54.2726 386.819 54.2726C388.934 58.3199 391.01 62.2516 393.047 66.1061C397.353 66.1061 401.505 66.1061 405.887 66.1061C402.85 61.3265 399.89 56.701 397.007 52.114ZM388.242 44.8674C385.012 45.0987 381.745 44.906 378.285 44.906C378.285 40.6274 378.285 36.6186 378.285 32.5713C378.285 32.34 378.362 32.0702 378.4 31.6462C381.937 31.7233 385.474 31.3378 388.934 31.8775C392.125 32.3786 393.97 34.9997 393.854 38.4688C393.739 42.1307 391.663 44.6361 388.242 44.8674Z" fill="#201E1E"/>
</svg>
