<svg width="87" height="17" viewBox="0 0 87 17" fill="none" xmlns="http://www.w3.org/2000/svg">
<g clip-path="url(#clip0_35_16720)">
<path d="M83.717 0H3.28302C1.46986 0 0 1.38385 0 3.09091V13.9091C0 15.6162 1.46986 17 3.28302 17H83.717C85.5301 17 87 15.6162 87 13.9091V3.09091C87 1.38385 85.5301 0 83.717 0Z" fill="black" fill-opacity="0.8"/>
<path d="M24.8022 5.88306V10.2387H25.3794V8.6842H26.5432C27.412 8.6842 28.0308 8.10767 28.0308 7.29267C28.0308 6.46261 27.4248 5.88306 26.5495 5.88306H24.8022ZM25.3794 6.36602H26.3989C27.0689 6.36602 27.4376 6.69501 27.4376 7.29267C27.4376 7.8692 27.0561 8.20125 26.3989 8.20125H25.3794V6.36602ZM30.0988 10.296C31.0831 10.296 31.6922 9.65614 31.6922 8.61176C31.6922 7.56432 31.0831 6.92744 30.0988 6.92744C29.1145 6.92744 28.5054 7.56432 28.5054 8.61176C28.5054 9.65614 29.1145 10.296 30.0988 10.296ZM30.0988 9.82818C29.4448 9.82818 29.0761 9.38143 29.0761 8.61176C29.0761 7.83903 29.4448 7.39529 30.0988 7.39529C30.7528 7.39529 31.1216 7.83903 31.1216 8.61176C31.1216 9.38143 30.7528 9.82818 30.0988 9.82818ZM36.6457 6.98478H36.0911L35.4114 9.58671H35.3601L34.5874 6.98478H34.0584L33.2858 9.58671H33.2345L32.5548 6.98478H31.9969L32.9652 10.2387H33.523L34.2925 7.7213H34.3438L35.1164 10.2387H35.6775L36.6457 6.98478ZM38.5022 7.38625C39.0504 7.38625 39.4159 7.76659 39.4288 8.34312H37.5243C37.566 7.76659 37.9507 7.38625 38.5022 7.38625ZM39.4127 9.39654C39.2684 9.6833 38.9671 9.83722 38.5214 9.83722C37.9347 9.83722 37.5532 9.42973 37.5243 8.78682V8.76267H40.009V8.56346C40.009 7.55227 39.4416 6.92744 38.5086 6.92744C37.5596 6.92744 36.9504 7.59149 36.9504 8.61477C36.9504 9.64404 37.55 10.296 38.5086 10.296C39.2652 10.296 39.8038 9.95194 39.9642 9.39654H39.4127ZM40.7434 10.2387H41.2947V8.22234C41.2947 7.76357 41.6763 7.43153 42.202 7.43153C42.3112 7.43153 42.5098 7.44961 42.555 7.46171V6.94255C42.4844 6.93347 42.3687 6.92744 42.2792 6.92744C41.8208 6.92744 41.4231 7.1508 41.3206 7.46773H41.2693V6.98478H40.7434V10.2387ZM44.3951 7.38625C44.9434 7.38625 45.309 7.76659 45.3217 8.34312H43.4172C43.459 7.76659 43.844 7.38625 44.3951 7.38625ZM45.3057 9.39654C45.1613 9.6833 44.8601 9.83722 44.4144 9.83722C43.8275 9.83722 43.4463 9.42973 43.4172 8.78682V8.76267H45.902V8.56346C45.902 7.55227 45.3345 6.92744 44.4017 6.92744C43.4525 6.92744 42.8435 7.59149 42.8435 8.61477C42.8435 9.64404 43.443 10.296 44.4017 10.296C45.1584 10.296 45.6968 9.95194 45.8573 9.39654H45.3057ZM47.9157 10.296C48.3934 10.296 48.8038 10.0818 49.0217 9.7195H49.073V10.2387H49.5987V5.6929H49.0475V7.49791H48.9991C48.8038 7.14176 48.3967 6.92744 47.9157 6.92744C47.0371 6.92744 46.4634 7.59149 46.4634 8.61176C46.4634 9.635 47.0305 10.296 47.9157 10.296ZM48.0438 7.39529C48.6692 7.39529 49.0603 7.86619 49.0603 8.61176C49.0603 9.36335 48.672 9.82818 48.0438 9.82818C47.4122 9.82818 47.0338 9.37239 47.0338 8.61176C47.0338 7.8541 47.4155 7.39529 48.0438 7.39529ZM53.9786 10.296C54.854 10.296 55.4277 9.62897 55.4277 8.61176C55.4277 7.58847 54.8568 6.92744 53.9786 6.92744C53.5042 6.92744 53.084 7.14779 52.8948 7.49791H52.8435V5.6929H52.292V10.2387H52.8181V9.7195H52.8694C53.0873 10.0818 53.4977 10.296 53.9786 10.296ZM53.8502 7.39529C54.4818 7.39529 54.8568 7.85108 54.8568 8.61176C54.8568 9.37239 54.4818 9.82818 53.8502 9.82818C53.2219 9.82818 52.8308 9.36335 52.8308 8.61176C52.8308 7.86016 53.2219 7.39529 53.8502 7.39529ZM56.3289 11.4159C56.9412 11.4159 57.2169 11.1925 57.5116 10.4379L58.8617 6.98478H58.2749L57.329 9.66216H57.2777L56.3289 6.98478H55.7326L57.0117 10.2417L56.9473 10.4349C56.8033 10.8273 56.6301 10.9692 56.3129 10.9692C56.2357 10.9692 56.1491 10.9661 56.0818 10.9541V11.3978C56.159 11.4098 56.255 11.4159 56.3289 11.4159ZM63.4657 10.2387L65.0654 5.88306H64.1839L63.0295 9.33012H62.9753L61.8115 5.88306H60.8976L62.5137 10.2387H63.4657ZM66.7553 7.46472C67.233 7.46472 67.5474 7.77864 67.5634 8.26762H65.912C65.9473 7.78467 66.2809 7.46472 66.7553 7.46472ZM67.5695 9.33012C67.4542 9.57461 67.1817 9.71046 66.7873 9.71046C66.2649 9.71046 65.928 9.36636 65.9087 8.81699V8.77778H68.3583V8.5363C68.3583 7.49489 67.7587 6.87007 66.7586 6.87007C65.7421 6.87007 65.1105 7.53716 65.1105 8.59966C65.1105 9.66216 65.7327 10.3051 66.7648 10.3051C67.5921 10.3051 68.1789 9.9308 68.323 9.33012H67.5695ZM69.0251 10.2387H69.8204V8.33102C69.8204 7.8692 70.1795 7.56734 70.6958 7.56734C70.8304 7.56734 71.0417 7.58847 71.1029 7.60961V6.91535C71.029 6.89425 70.8878 6.88216 70.7725 6.88216C70.3207 6.88216 69.9423 7.12364 69.8459 7.44961H69.7917V6.93648H69.0251V10.2387ZM74.5656 8.04728C74.4823 7.35302 73.9369 6.87007 73.0362 6.87007C71.9815 6.87007 71.3626 7.50699 71.3626 8.57853C71.3626 9.66518 71.9848 10.3051 73.0394 10.3051C73.9275 10.3051 74.479 9.84028 74.5656 9.14903H73.8089C73.7256 9.49313 73.4498 9.67727 73.0362 9.67727C72.4945 9.67727 72.1674 9.27279 72.1674 8.57853C72.1674 7.89335 72.4912 7.49791 73.0362 7.49791C73.4724 7.49791 73.735 7.72733 73.8089 8.04728H74.5656ZM76.6655 7.46472C77.1432 7.46472 77.4576 7.77864 77.4736 8.26762H75.8222C75.8575 7.78467 76.1911 7.46472 76.6655 7.46472ZM77.4801 9.33012C77.3644 9.57461 77.0919 9.71046 76.6975 9.71046C76.1751 9.71046 75.8386 9.36636 75.8193 8.81699V8.77778H78.2685V8.5363C78.2685 7.49489 77.6689 6.87007 76.6688 6.87007C75.6523 6.87007 75.0207 7.53716 75.0207 8.59966C75.0207 9.66216 75.6429 10.3051 76.6754 10.3051C77.5023 10.3051 78.0891 9.9308 78.2332 9.33012H77.4801ZM78.9677 10.2387H79.7626V5.65967H78.9677V10.2387Z" fill="white"/>
<path d="M9.5718 5.02295L13.3985 11.2048H5.74512L9.5718 5.02295Z" fill="white"/>
<path d="M17.8516 0V17" stroke="#5E5E5E"/>
</g>
<defs>
<clipPath id="clip0_35_16720">
<rect width="87" height="17" fill="white"/>
</clipPath>
</defs>
</svg>